PathFileType	4	(X/Y/Z)	Walk5.trc
DataRate	CameraRate	NumFrames	NumMarkers	Units	OrigDataRate	OrigDataStartFrame	OrigNumFrames
200.000000	200.000000	6	59	mm	200.000000	347	531
Frame#	Times		RFHD		CLAV		RASI		RACR1		RUA1		RFA1		LUA1		LFA1		LWRR		LWRU		RTH1		LTH2		LCAR		LACR1		LFHD		RBack		RCAR		LTH4		LTH3		T10		LLFC		C7		RWRR		LASI		RWRU		RElbow		LTB2		LToe		LBHD		RBHD		LTH1		STRN		RTB1		LTB4		RTH4		RPSI		RTH2		RMT1		LMMAL		LTB1		LMT1		LCAL		LElbow		LTB3		LMT5		RTB2		RElbowM		RTH3		RLFC		LElbowM		RTB4		LLMAL		LPSI		RTB3		RCAL		RToe		RMMAL		RLMAL		RMT5
			X1	Y1	Z1	X2	Y2	Z2	X3	Y3	Z3	X4	Y4	Z4	X5	Y5	Z5	X6	Y6	Z6	X7	Y7	Z7	X8	Y8	Z8	X9	Y9	Z9	X10	Y10	Z10	X11	Y11	Z11	X12	Y12	Z12	X13	Y13	Z13	X14	Y14	Z14	X15	Y15	Z15	X16	Y16	Z16	X17	Y17	Z17	X18	Y18	Z18	X19	Y19	Z19	X20	Y20	Z20	X21	Y21	Z21	X22	Y22	Z22	X23	Y23	Z23	X24	Y24	Z24	X25	Y25	Z25	X26	Y26	Z26	X27	Y27	Z27	X28	Y28	Z28	X29	Y29	Z29	X30	Y30	Z30	X31	Y31	Z31	X32	Y32	Z32	X33	Y33	Z33	X34	Y34	Z34	X35	Y35	Z35	X36	Y36	Z36	X37	Y37	Z37	X38	Y38	Z38	X39	Y39	Z39	X40	Y40	Z40	X41	Y41	Z41	X42	Y42	Z42	X43	Y43	Z43	X44	Y44	Z44	X45	Y45	Z45	X46	Y46	Z46	X47	Y47	Z47	X48	Y48	Z48	X49	Y49	Z49	X50	Y50	Z50	X51	Y51	Z51	X52	Y52	Z52	X53	Y53	Z53	X54	Y54	Z54	X55	Y55	Z55	X56	Y56	Z56	X57	Y57	Z57	X58	Y58	Z58	X59	Y59	Z59

347	1.735	-117.6	1432.2	12.831	-129.97	1189	-39.682	-146.61	837.33	134.71	-211	1221.2	134.33	-211.57	1086.5	222.47	-144.02	851.13	279.68	-165	1049.9	-300.12	-107.51	853.92	-346.82	-38.801	767.69	-328.7	-87.899	741.3	-357.62	-176.61	644.98	179.73	-168.42	572.86	-193.12	-35.808	714.69	-370.57	-191.53	1213.7	-233.03	-105.91	1441.3	-82.832	-325.79	1155.6	65.567	-103.28	701.81	309.44	-220.4	566.05	-220.55	-226.77	482.97	-191.78	-356.58	1073.8	-42.041	-214.06	388.3	-153.12	-270.05	1274.2	-51.175	-103.72	759.16	255.79	-154.84	820.14	-192.24	-158.09	746.47	300.69	-214.38	960.11	261.14	-258.02	206.01	-141.11	-154.45	27.824	-70.408	-228.2	1357.7	-115.08	-243.49	1353.7	16.945	-214.85	650.32	-240.23	-79.77	1083.1	-24.251	-69.262	304.57	65.183	-244.16	204.07	-80.468	-143.38	567.9	156.83	-400.32	849.29	22.716	-92.859	598.25	141.5	-45.964	52.87	17.211	-309.46	71.71	-32.47	-215.74	287.31	-84.901	-209.73	31.727	-46.387	-374.66	47.321	-70.69	-188.47	930.6	-322.32	-265.34	123.24	-76.686	-249.66	20.036	-134.19	-127.2	224.46	103.82	-261.54	922.32	190.21	-105.82	494.66	126.91	-111.34	409.25	112.46	-218.67	902.75	-258.31	-90.93	221.95	54.939	-327.32	58.965	-112.48	-405.47	856.07	-81.777	-104.19	140.2	45.16	-212.4	53.59	24.292	-3.5739	62.459	58.647	-140.45	90.57	-4.4859	-159.96	78.219	75.995	-77.197	37.162	99.291
348	1.74	-111.77	1431.7	13.573	-124.21	1188.6	-39.112	-141.03	837.1	135.23	-205.42	1220.7	134.82	-206.34	1086.1	222.93	-139.08	850.92	280.78	-159.3	1050	-300.16	-100.18	854.51	-346.5	-30.618	769.12	-327.69	-79.283	742.15	-356.84	-170.73	644.55	180.26	-164.06	572.09	-192.78	-26.812	716.04	-369.4	-185.43	1213.6	-232.49	-100.13	1440.9	-82.091	-320.1	1155.1	65.806	-98.309	701.62	310.74	-216.05	565.56	-220.25	-222.86	482.5	-191.54	-350.74	1073.5	-41.89	-210.88	387.63	-152.95	-264.27	1273.8	-50.68	-98.541	758.98	257.08	-149.13	819.4	-191.79	-153.11	746.25	301.75	-209.47	959.8	261.81	-256.48	205.59	-140.92	-154.25	27.741	-70.486	-222.44	1357.3	-114.34	-237.67	1353.3	17.686	-210.05	649.82	-239.84	-74.002	1082.6	-23.644	-59.865	305.6	65.316	-242.6	203.54	-80.271	-137.68	567.54	156.86	-394.38	848.84	23.334	-87.107	597.88	141.7	-25.87	54.981	18.09	-309.12	71.783	-32.213	-213.5	286.54	-84.701	-209.61	31.676	-46.319	-374.5	47.77	-70.422	-182.08	930.56	-322.39	-264.52	122.89	-76.494	-249.66	20.071	-134.1	-114.48	223.28	104.16	-256.3	921.9	190.78	-100.29	494.41	126.51	-105.66	408.81	112.26	-212.16	902.47	-258.45	-78.048	222.17	55.332	-327.07	59.171	-112.3	-399.75	855.82	-81.08	-87.806	139.89	45.807	-192.33	48.735	24.955	16.072	66.377	59.483	-121.84	88.688	-3.8179	-140.91	75.632	76.677	-56.523	38.068	100.22
349	1.745	-105.94	1431.3	14.33	-118.45	1188.2	-38.534	-135.36	836.79	135.73	-199.85	1220.1	135.33	-201.12	1085.7	223.4	-134.12	850.64	281.9	-153.59	1050.1	-300.16	-92.889	855.06	-346.16	-22.504	770.5	-326.67	-70.733	742.97	-356.05	-164.9	644.02	180.82	-159.7	571.3	-192.49	-17.895	717.36	-368.2	-179.36	1213.4	-231.92	-94.356	1440.5	-81.335	-314.42	1154.6	66.079	-93.271	701.38	312.03	-211.71	565.06	-219.96	-218.95	482.01	-191.31	-344.91	1073	-41.702	-207.67	386.94	-152.78	-258.5	1273.4	-50.152	-93.305	758.75	258.38	-143.4	818.63	-191.33	-148.08	745.96	302.79	-204.53	959.43	262.49	-254.93	205.18	-140.71	-154.05	27.664	-70.573	-216.69	1357	-113.57	-231.85	1352.8	18.45	-205.28	649.3	-239.46	-68.228	1082.2	-23.129	-50.733	306.64	65.475	-241.02	203.02	-80.077	-132.13	567.04	156.96	-388.38	848.33	24.044	-81.477	597.28	141.94	-6.2043	57.411	18.92	-308.77	71.883	-31.937	-211.2	285.77	-84.515	-209.49	31.623	-46.251	-374.33	48.256	-70.134	-175.72	930.49	-322.45	-263.7	122.55	-76.297	-249.66	20.104	-133.99	-101.98	222.26	104.51	-251.04	921.4	191.37	-94.992	493.96	126.24	-100.22	408.23	112.12	-205.68	902.15	-258.57	-65.43	222.52	55.741	-326.83	59.4	-112.09	-394.03	855.53	-80.308	-71.707	139.85	46.462	-172.44	44.336	25.621	35.246	70.559	60.248	-103.49	87.169	-3.158	-122.07	73.429	77.353	-36.212	39.332	101.12
350	1.75	-100.11	1430.8	15.103	-112.69	1187.8	-37.946	-129.6	836.41	136.19	-194.29	1219.5	135.87	-195.92	1085.1	223.9	-129.11	850.32	283.03	-147.84	1050.1	-300.14	-85.642	855.58	-345.8	-14.464	771.85	-325.63	-62.255	743.78	-355.24	-159.13	643.41	181.41	-155.34	570.49	-192.26	-9.0652	718.65	-366.99	-173.31	1213.2	-231.33	-88.585	1440.1	-80.564	-308.73	1154	66.389	-88.17	701.08	313.31	-207.38	564.54	-219.68	-215.04	481.51	-191.09	-339.08	1072.5	-41.473	-204.42	386.24	-152.61	-252.74	1272.9	-49.589	-88.011	758.48	259.66	-137.63	817.82	-190.85	-142.99	745.62	303.82	-199.58	958.99	263.18	-253.38	204.77	-140.51	-153.85	27.591	-70.668	-210.95	1356.6	-112.78	-226.03	1352.4	19.24	-200.55	648.77	-239.09	-62.445	1081.7	-22.703	-41.861	307.67	65.653	-239.41	202.49	-79.883	-126.73	566.41	157.16	-382.34	847.79	24.839	-75.966	596.47	142.24	12.959	60.124	19.685	-308.42	72.013	-31.642	-208.85	284.99	-84.34	-209.36	31.57	-46.183	-374.17	48.783	-69.824	-169.37	930.38	-322.48	-262.86	122.22	-76.094	-249.67	20.134	-133.87	-89.715	221.39	104.87	-245.73	920.84	191.98	-89.933	493.3	126.11	-94.996	407.51	112.03	-199.21	901.79	-258.66	-53.104	223	56.152	-326.6	59.656	-111.87	-388.3	855.22	-79.466	-55.951	140.05	47.115	-152.82	40.403	26.293	53.889	74.958	60.921	-85.493	86.005	-2.5119	-103.54	71.609	78.016	-16.335	40.922	101.96
351	1.755	-94.282	1430.2	15.892	-106.94	1187.4	-37.344	-123.74	835.96	136.62	-188.72	1218.9	136.44	-190.73	1084.6	224.41	-124.06	849.93	284.16	-142.07	1050.1	-300.07	-78.444	856.08	-345.42	-6.5022	773.15	-324.57	-53.851	744.56	-354.41	-153.41	642.71	182.03	-150.97	569.67	-192.07	-0.32687	719.9	-365.75	-167.3	1213	-230.71	-82.82	1439.6	-79.776	-303.05	1153.4	66.741	-83.005	700.74	314.58	-203.05	564	-219.41	-211.11	481	-190.87	-333.24	1071.9	-41.201	-201.13	385.53	-152.45	-246.99	1272.4	-48.989	-82.66	758.15	260.94	-131.83	816.99	-190.38	-137.84	745.21	304.84	-194.6	958.48	263.89	-251.82	204.36	-140.3	-153.66	27.523	-70.772	-205.23	1356.1	-111.96	-220.21	1351.8	20.056	-195.84	648.23	-238.74	-56.652	1081.1	-22.358	-33.247	308.7	65.837	-237.78	201.96	-79.69	-121.47	565.63	157.44	-376.25	847.21	25.715	-70.573	595.46	142.59	31.545	63.07	20.37	-308.06	72.177	-31.328	-206.45	284.2	-84.179	-209.23	31.516	-46.115	-374.01	49.357	-69.494	-163.06	930.25	-322.5	-262.01	121.91	-75.884	-249.69	20.161	-133.74	-77.712	220.67	105.23	-240.39	920.2	192.61	-85.099	492.45	126.14	-89.96	406.67	112	-192.77	901.42	-258.74	-41.095	223.59	56.555	-326.36	59.944	-111.64	-382.55	854.89	-78.563	-40.597	140.5	47.751	-133.58	36.935	26.971	71.941	79.516	61.485	-67.921	85.179	-1.8853	-85.388	70.161	78.664	3.0297	42.799	102.74
352	1.76	-88.458	1429.6	16.7	-101.18	1186.9	-36.729	-117.79	835.43	137.01	-183.16	1218.2	137.04	-185.55	1083.9	224.95	-118.97	849.48	285.3	-136.25	1050.2	-299.95	-71.298	856.54	-345.01	1.3781	774.41	-323.5	-45.526	745.33	-353.56	-147.76	641.93	182.68	-146.59	568.84	-191.94	8.3138	721.13	-364.51	-161.32	1212.7	-230.07	-77.062	1439.1	-78.97	-297.37	1152.7	67.137	-77.779	700.34	315.83	-198.73	563.46	-219.15	-207.17	480.49	-190.65	-327.41	1071.3	-40.882	-197.8	384.81	-152.29	-241.27	1271.9	-48.35	-77.252	757.78	262.21	-125.99	816.12	-189.91	-132.63	744.74	305.85	-189.59	957.92	264.61	-250.24	203.97	-140.08	-153.48	27.459	-70.885	-199.51	1355.7	-111.11	-214.4	1351.3	20.898	-191.14	647.68	-238.41	-50.846	1080.5	-22.085	-24.886	309.7	66.015	-236.13	201.45	-79.498	-116.36	564.73	157.84	-370.11	846.6	26.666	-65.294	594.24	142.99	49.479	66.193	20.962	-307.7	72.378	-30.999	-204	283.4	-84.03	-209.09	31.464	-46.048	-373.85	49.984	-69.144	-156.76	930.1	-322.48	-261.16	121.62	-75.67	-249.73	20.186	-133.58	-65.99	220.1	105.59	-235.01	919.5	193.25	-80.475	491.41	126.33	-85.08	405.73	112.02	-186.36	901.02	-258.79	-29.429	224.27	56.935	-326.13	60.27	-111.39	-376.79	854.54	-77.604	-25.699	141.14	48.357	-114.83	33.925	27.658	89.343	84.164	61.923	-50.865	84.666	-1.2832	-67.7	69.066	79.293	21.804	44.911	103.43
